{
  "accessors": [
    {
      "bufferView": 2,
      "componentType": 5126,
      "count": 65532,
      "max": [
        295.64962768554688,
        1749.670654296875,
        180.77867126464844
      ],
      "min": [
        -295.8121337890625,
        1002.7991333007812,
        -179.80303955078125
      ],
      "type": "VEC3"
    },
    {
      "bufferView": 2,
      "byteOffset": 786384,
      "componentType": 5126,
      "count": 65532,
      "max": [
        0.99999171495437622,
        0.99992555379867554,
        0.9999958872795105
      ],
      "min": [
        -0.9999469518661499,
        -0.99990862607955933,
        -0.99999356269836426
      ],
      "type": "VEC3"
    },
    {
      "bufferView": 3,
      "componentType": 5126,
      "count": 65532,
      "max": [
        1,
        0.99999487400054932,
        0.99999392032623291,
        1
      ],
      "min": [
        -0.99997270107269287,
        -0.99998706579208374,
        -0.99998092651367188,
        -1
      ],
      "type": "VEC4"
    },
    {
      "bufferView": 1,
      "componentType": 5126,
      "count": 65532,
      "max": [
        0.996429443359375,
        0.939971923828125
      ],
      "min": [
        0.001983642578125,
        0.0018768310546875
      ],
      "type": "VEC2"
    },
    {
      "bufferView": 0,
      "componentType": 5125,
      "count": 368796,
      "max": [
        65531
      ],
      "min": [
        0
      ],
      "type": "SCALAR"
    },
    {
      "bufferView": 2,
      "byteOffset": 1572768,
      "componentType": 5126,
      "count": 4403,
      "max": [
        238.23390197753906,
        1672.3701171875,
        15.368993759155273
      ],
      "min": [
        -253.37474060058594,
        1146.4820556640625,
        -126.59340667724609
      ],
      "type": "VEC3"
    },
    {
      "bufferView": 2,
      "byteOffset": 1625604,
      "componentType": 5126,
      "count": 4403,
      "max": [
        0.9987640380859375,
        0.80593264102935791,
        0.99998295307159424
      ],
      "min": [
        -0.99971401691436768,
        -0.99416047334671021,
        -0.76958966255187988
      ],
      "type": "VEC3"
    },
    {
      "bufferView": 3,
      "byteOffset": 1048512,
      "componentType": 5126,
      "count": 4403,
      "max": [
        0.99999964237213135,
        0.88838529586791992,
        0.99995481967926025,
        1
      ],
      "min": [
        -0.48221901059150696,
        -0.99382811784744263,
        -0.99945300817489624,
        -1
      ],
      "type": "VEC4"
    },
    {
      "bufferView": 1,
      "byteOffset": 524256,
      "componentType": 5126,
      "count": 4403,
      "max": [
        0.3587646484375,
        0.671234130859375
      ],
      "min": [
        0.05108642578125,
        0.3607635498046875
      ],
      "type": "VEC2"
    },
    {
      "bufferView": 0,
      "byteOffset": 1475184,
      "componentType": 5125,
      "count": 23298,
      "max": [
        4402
      ],
      "min": [
        0
      ],
      "type": "SCALAR"
    },
    {
      "bufferView": 2,
      "byteOffset": 1678440,
      "componentType": 5126,
      "count": 27,
      "max": [
        7.529810905456543,
        1666.2188720703125,
        -67.170333862304688
      ],
      "min": [
        -21.745876312255859,
        1652.4384765625,
        -75.260711669921875
      ],
      "type": "VEC3"
    },
    {
      "bufferView": 2,
      "byteOffset": 1678764,
      "componentType": 5126,
      "count": 27,
      "max": [
        0.074468009173870087,
        -0.50950992107391357,
        0.85841745138168335
      ],
      "min": [
        -0.13093855977058411,
        -0.60987401008605957,
        0.78816378116607666
      ],
      "type": "VEC3"
    },
    {
      "bufferView": 1,
      "byteOffset": 559480,
      "componentType": 5126,
      "count": 27,
      "max": [
        0.99800872802734375,
        0.14133071899414062
      ],
      "min": [
        0.99088287353515625,
        0.12424802780151367
      ],
      "type": "VEC2"
    },
    {
      "bufferView": 0,
      "byteOffset": 1568376,
      "componentType": 5125,
      "count": 108,
      "max": [
        26
      ],
      "min": [
        0
      ],
      "type": "SCALAR"
    }
  ],
  "asset": {
    "extras": {
      "author": "virtualrags (https://sketchfab.com/3dclothes)",
      "license": "SKETCHFAB Standard (https://sketchfab.com/licenses)",
      "source": "https://sketchfab.com/3d-models/dior-oblique-hoodie-blue-jacquard-cotton-56c8407d8c3f45f1a438fc3b1341e377",
      "title": "Dior Oblique Hoodie Blue Jacquard Cotton"
    },
    "generator": "Sketchfab-8.91.0",
    "version": "2.0"
  },
  "bufferViews": [
    {
      "buffer": 0,
      "byteLength": 1568808,
      "byteOffset": 0,
      "name": "floatBufferViews",
      "target": 34963
    },
    {
      "buffer": 0,
      "byteLength": 559696,
      "byteOffset": 1568808,
      "byteStride": 8,
      "name": "floatBufferViews",
      "target": 34962
    },
    {
      "buffer": 0,
      "byteLength": 1679088,
      "byteOffset": 2128504,
      "byteStride": 12,
      "name": "floatBufferViews",
      "target": 34962
    },
    {
      "buffer": 0,
      "byteLength": 1118960,
      "byteOffset": 3807592,
      "byteStride": 16,
      "name": "floatBufferViews",
      "target": 34962
    }
  ],
  "buffers": [
    {
      "byteLength": 4926552,
      "uri": "scene.bin"
    }
  ],
  "images": [
    {
      "uri": "textures/New_sin2FABRIC1_baseColor.png"
    },
    {
      "uri": "textures/New_sin2FABRIC1_normal.png"
    },
    {
      "uri": "textures/New_sin2Zipper_FRONT_36918_baseColor.png"
    }
  ],
  "materials": [
    {
      "doubleSided": true,
      "name": "New_sin2FABRIC1",
      "normalTexture": {
        "index": 1,
        "scale": 0.34317835365853661,
        "texCoord": 0
      },
      "pbrMetallicRoughness": {
        "baseColorFactor": [
          1,
          1,
          1,
          1
        ],
        "baseColorTexture": {
          "index": 0,
          "texCoord": 0
        },
        "metallicFactor": 0,
        "roughnessFactor": 1
      }
    },
    {
      "doubleSided": true,
      "emissiveFactor": [
        0,
        0,
        0
      ],
      "name": "New_sin2Zipper_FRONT_36918",
      "pbrMetallicRoughness": {
        "baseColorFactor": [
          1,
          1,
          1,
          1
        ],
        "baseColorTexture": {
          "index": 2,
          "texCoord": 0
        },
        "metallicFactor": 0,
        "roughnessFactor": 0.98233680999847672
      }
    }
  ],
  "meshes": [
    {
      "name": "polySurface1_New_sin2:FABRIC1_0",
      "primitives": [
        {
          "attributes": {
            "NORMAL": 1,
            "POSITION": 0,
            "TANGENT": 2,
            "TEXCOORD_0": 3
          },
          "indices": 4,
          "material": 0,
          "mode": 4
        }
      ]
    },
    {
      "name": "polySurface1_New_sin2:FABRIC1_0",
      "primitives": [
        {
          "attributes": {
            "NORMAL": 6,
            "POSITION": 5,
            "TANGENT": 7,
            "TEXCOORD_0": 8
          },
          "indices": 9,
          "material": 0,
          "mode": 4
        }
      ]
    },
    {
      "name": "polySurface1_New_sin2:Zipper_FRONT_36918_0",
      "primitives": [
        {
          "attributes": {
            "NORMAL": 11,
            "POSITION": 10,
            "TEXCOORD_0": 12
          },
          "indices": 13,
          "material": 1,
          "mode": 4
        }
      ]
    }
  ],
  "nodes": [
    {
      "children": [
        1
      ],
      "name": "RootNode (gltf orientation matrix)",
      "rotation": [
        -0.70710678118654746,
        -0,
        -0,
        0.70710678118654757
      ]
    },
    {
      "children": [
        2
      ],
      "matrix": [
        0.0011042932746931911,
        0,
        0,
        0,
        0,
        0.0011042932746931911,
        0,
        0,
        0,
        0,
        0.0011042932746931911,
        0,
        0,
        0,
        0,
        1
      ],
      "name": "RootNode (model correction matrix)"
    },
    {
      "children": [
        3
      ],
      "matrix": [
        1,
        0,
        0,
        0,
        0,
        0,
        1,
        0,
        0,
        -1,
        0,
        0,
        0,
        0,
        0,
        1
      ],
      "name": "6b81c290a5214e58b55b54b042e9db6a.fbx"
    },
    {
      "children": [
        4
      ],
      "name": "RootNode"
    },
    {
      "children": [
        5
      ],
      "name": "New_sin2:polySurface1"
    },
    {
      "children": [
        6,
        7,
        8
      ],
      "name": "polySurface1"
    },
    {
      "mesh": 0,
      "name": "polySurface1_New_sin2:FABRIC1_0"
    },
    {
      "mesh": 1,
      "name": "polySurface1_New_sin2:FABRIC1_0"
    },
    {
      "mesh": 2,
      "name": "polySurface1_New_sin2:Zipper_FRONT_36918_0"
    }
  ],
  "samplers": [
    {
      "magFilter": 9729,
      "minFilter": 9987,
      "wrapS": 10497,
      "wrapT": 10497
    }
  ],
  "scene": 0,
  "scenes": [
    {
      "name": "OSG_Scene",
      "nodes": [
        0
      ]
    }
  ],
  "textures": [
    {
      "sampler": 0,
      "source": 0
    },
    {
      "sampler": 0,
      "source": 1
    },
    {
      "sampler": 0,
      "source": 2
    }
  ]
}

