{
  "accessors": [
    {
      "bufferView": 2,
      "componentType": 5126,
      "count": 4999,
      "max": [
        0.08165262639522552,
        0.1389796882867813,
        0.05830438435077667
      ],
      "min": [
        -0.08165262639522552,
        -0.011506695300340652,
        0.0021162116900086403
      ],
      "type": "VEC3"
    },
    {
      "bufferView": 2,
      "byteOffset": 59988,
      "componentType": 5126,
      "count": 4999,
      "max": [
        1.0,
        0.999177873134613,
        0.9997143149375916
      ],
      "min": [
        -1.0,
        -0.9999043345451355,
        -0.9999861121177673
      ],
      "type": "VEC3"
    },
    {
      "bufferView": 3,
      "componentType": 5126,
      "count": 4999,
      "max": [
        1.0,
        0.9999200105667114,
        0.9999779462814331,
        1.0
      ],
      "min": [
        -1.0,
        -0.9999701380729675,
        -0.9999791383743286,
        -1.0
      ],
      "type": "VEC4"
    },
    {
      "bufferView": 1,
      "componentType": 5126,
      "count": 4999,
      "max": [
        0.9937072992324829,
        0.997738778591156
      ],
      "min": [
        0.0009882994927465916,
        0.008905768394470215
      ],
      "type": "VEC2"
    },
    {
      "bufferView": 0,
      "componentType": 5125,
      "count": 21540,
      "type": "SCALAR"
    }
  ],
  "asset": {
    "extras": {
      "author": "ArnoldE (https://sketchfab.com/arnoldescorcia906)",
      "license": "SKETCHFAB Standard (https://sketchfab.com/licenses)",
      "source": "https://sketchfab.com/3d-models/glasses-oakley-radar-path-gafas-oakley-radar-3a98b1fed8dc4c79a4726a539213c530",
      "title": "Glasses Oakley Radar Path - Gafas Oakley Radar"
    },
    "generator": "Sketchfab-10.64.0",
    "version": "2.0"
  },
  "bufferViews": [
    {
      "buffer": 0,
      "byteLength": 86160,
      "name": "floatBufferViews",
      "target": 34963
    },
    {
      "buffer": 0,
      "byteLength": 39992,
      "byteOffset": 86160,
      "byteStride": 8,
      "name": "floatBufferViews",
      "target": 34962
    },
    {
      "buffer": 0,
      "byteLength": 119976,
      "byteOffset": 126152,
      "byteStride": 12,
      "name": "floatBufferViews",
      "target": 34962
    },
    {
      "buffer": 0,
      "byteLength": 79984,
      "byteOffset": 246128,
      "byteStride": 16,
      "name": "floatBufferViews",
      "target": 34962
    }
  ],
  "buffers": [
    {
      "byteLength": 326112,
      "uri": "scene.bin"
    }
  ],
  "images": [
    {
      "uri": "textures/ModOakleyRader_baseColor.jpeg"
    },
    {
      "uri": "textures/ModOakleyRader_metallicRoughness.png"
    },
    {
      "uri": "textures/ModOakleyRader_normal.png"
    }
  ],
  "materials": [
    {
      "doubleSided": true,
      "name": "ModOakleyRader",
      "normalTexture": {
        "index": 2
      },
      "pbrMetallicRoughness": {
        "baseColorTexture": {
          "index": 0
        },
        "metallicRoughnessTexture": {
          "index": 1
        }
      }
    }
  ],
  "meshes": [
    {
      "name": "ModOakleyRader_ModOakleyRader_0",
      "primitives": [
        {
          "attributes": {
            "NORMAL": 1,
            "POSITION": 0,
            "TANGENT": 2,
            "TEXCOORD_0": 3
          },
          "indices": 4,
          "material": 0,
          "mode": 4
        }
      ]
    }
  ],
  "nodes": [
    {
      "children": [
        1
      ],
      "matrix": [
        0.009879400953650475,
        0.0,
        0.0,
        0.0,
        0.0,
        2.193667681649297e-18,
        -0.009879400953650475,
        0.0,
        0.0,
        0.009879400953650475,
        2.193667681649297e-18,
        0.0,
        0.0,
        0.0,
        0.0,
        1.0
      ],
      "name": "Sketchfab_model"
    },
    {
      "children": [
        2
      ],
      "matrix": [
        1.0,
        0.0,
        0.0,
        0.0,
        0.0,
        0.0,
        1.0,
        0.0,
        0.0,
        -1.0,
        0.0,
        0.0,
        0.0,
        0.0,
        0.0,
        1.0
      ],
      "name": "747f8d0f625a4613a36bcb47de723be8.fbx"
    },
    {
      "children": [
        3
      ],
      "name": "RootNode"
    },
    {
      "children": [
        4
      ],
      "matrix": [
        100.0,
        0.0,
        0.0,
        0.0,
        0.0,
        -1.629206793918314e-05,
        -99.99999999999868,
        0.0,
        0.0,
        99.99999999999868,
        -1.629206793918314e-05,
        0.0,
        0.0,
        0.0,
        0.0,
        1.0
      ],
      "name": "ModOakleyRader"
    },
    {
      "mesh": 0,
      "name": "ModOakleyRader_ModOakleyRader_0"
    }
  ],
  "samplers": [
    {
      "magFilter": 9728,
      "minFilter": 9986,
      "wrapS": 10497,
      "wrapT": 10497
    },
    {
      "magFilter": 9729,
      "minFilter": 9729,
      "wrapS": 10497,
      "wrapT": 10497
    },
    {
      "magFilter": 9729,
      "minFilter": 9987,
      "wrapS": 10497,
      "wrapT": 10497
    }
  ],
  "scene": 0,
  "scenes": [
    {
      "name": "Sketchfab_Scene",
      "nodes": [
        0
      ]
    }
  ],
  "textures": [
    {
      "sampler": 0,
      "source": 0
    },
    {
      "sampler": 1,
      "source": 1
    },
    {
      "sampler": 2,
      "source": 2
    }
  ]
}
