{
  "accessors": [
    {
      "bufferView": 2,
      "componentType": 5126,
      "count": 3037,
      "max": [
        15.834258079528809,
        76.836051940917969,
        1.1954870223999023
      ],
      "min": [
        -14.14592170715332,
        18.308378219604492,
        -0.73068225383758545
      ],
      "type": "VEC3"
    },
    {
      "bufferView": 2,
      "byteOffset": 36444,
      "componentType": 5126,
      "count": 3037,
      "max": [
        0.99997442960739136,
        0.99720561504364014,
        0.99411636590957642
      ],
      "min": [
        -0.99989330768585205,
        -0.99941271543502808,
        -0.99674612283706665
      ],
      "type": "VEC3"
    },
    {
      "bufferView": 3,
      "componentType": 5126,
      "count": 3037,
      "max": [
        0.98873281478881836,
        0.99970000982284546,
        0.99996769428253174,
        1
      ],
      "min": [
        -0.99401533603668213,
        -0.99996471405029297,
        -0.99426555633544922,
        -1
      ],
      "type": "VEC4"
    },
    {
      "bufferView": 1,
      "componentType": 5126,
      "count": 3037,
      "max": [
        0.89624464511871338,
        0.66434985399246216
      ],
      "min": [
        0.74956274032592773,
        0.52199321985244751
      ],
      "type": "VEC2"
    },
    {
      "bufferView": 0,
      "componentType": 5125,
      "count": 13056,
      "max": [
        3036
      ],
      "min": [
        0
      ],
      "type": "SCALAR"
    },
    {
      "bufferView": 2,
      "byteOffset": 72888,
      "componentType": 5126,
      "count": 2322,
      "max": [
        16.15785026550293,
        18.846517562866211,
        5.6128039360046387
      ],
      "min": [
        -14.971673011779785,
        0,
        -4.4338674545288086
      ],
      "type": "VEC3"
    },
    {
      "bufferView": 2,
      "byteOffset": 100752,
      "componentType": 5126,
      "count": 2322,
      "max": [
        1,
        1,
        0.99940860271453857
      ],
      "min": [
        -1,
        -1,
        -0.99940860271453857
      ],
      "type": "VEC3"
    },
    {
      "bufferView": 3,
      "byteOffset": 48592,
      "componentType": 5126,
      "count": 2322,
      "max": [
        1,
        0.9999692440032959,
        1,
        1
      ],
      "min": [
        -1,
        -0.99999868869781494,
        -0.99999487400054932,
        -1
      ],
      "type": "VEC4"
    },
    {
      "bufferView": 1,
      "byteOffset": 24296,
      "componentType": 5126,
      "count": 2322,
      "max": [
        1.9971522092819214,
        0.99902069568634033
      ],
      "min": [
        0.0014325529336929321,
        0.0019196271896362305
      ],
      "type": "VEC2"
    },
    {
      "bufferView": 0,
      "byteOffset": 52224,
      "componentType": 5125,
      "count": 7629,
      "max": [
        2321
      ],
      "min": [
        0
      ],
      "type": "SCALAR"
    }
  ],
  "asset": {
    "extras": {
      "author": "Paris (https://sketchfab.com/AAAAAAAAAbla)",
      "license": "SKETCHFAB Standard (https://sketchfab.com/licenses)",
      "source": "https://sketchfab.com/3d-models/woman-handbag-balmain-2dfd8b0debaa4c87a2ee4ecad25f995f",
      "title": "Woman Handbag Balmain"
    },
    "generator": "Sketchfab-10.19.0",
    "version": "2.0"
  },
  "bufferViews": [
    {
      "buffer": 0,
      "byteLength": 82740,
      "byteOffset": 0,
      "name": "floatBufferViews",
      "target": 34963
    },
    {
      "buffer": 0,
      "byteLength": 42872,
      "byteOffset": 82740,
      "byteStride": 8,
      "name": "floatBufferViews",
      "target": 34962
    },
    {
      "buffer": 0,
      "byteLength": 128616,
      "byteOffset": 125612,
      "byteStride": 12,
      "name": "floatBufferViews",
      "target": 34962
    },
    {
      "buffer": 0,
      "byteLength": 85744,
      "byteOffset": 254228,
      "byteStride": 16,
      "name": "floatBufferViews",
      "target": 34962
    }
  ],
  "buffers": [
    {
      "byteLength": 339972,
      "uri": "scene.bin"
    }
  ],
  "images": [
    {
      "uri": "textures/Bag_Balmain_Mat_baseColor.png"
    },
    {
      "uri": "textures/Bag_Balmain_Mat_metallicRoughness.png"
    },
    {
      "uri": "textures/Bag_Balmain_Mat_normal.png"
    }
  ],
  "materials": [
    {
      "doubleSided": true,
      "name": "Bag_Balmain_Mat",
      "normalTexture": {
        "index": 2,
        "scale": 1,
        "texCoord": 0
      },
      "occlusionTexture": {
        "index": 1,
        "strength": 1,
        "texCoord": 0
      },
      "pbrMetallicRoughness": {
        "baseColorFactor": [
          1,
          1,
          1,
          1
        ],
        "baseColorTexture": {
          "index": 0,
          "texCoord": 0
        },
        "metallicFactor": 1,
        "metallicRoughnessTexture": {
          "index": 1,
          "texCoord": 0
        },
        "roughnessFactor": 1
      }
    }
  ],
  "meshes": [
    {
      "name": "chains_Bag_Balmain_Mat_0",
      "primitives": [
        {
          "attributes": {
            "NORMAL": 1,
            "POSITION": 0,
            "TANGENT": 2,
            "TEXCOORD_0": 3
          },
          "indices": 4,
          "material": 0,
          "mode": 4
        }
      ]
    },
    {
      "name": "Bag_Balmain_4_Bag_Balmain_Mat_0",
      "primitives": [
        {
          "attributes": {
            "NORMAL": 6,
            "POSITION": 5,
            "TANGENT": 7,
            "TEXCOORD_0": 8
          },
          "indices": 9,
          "material": 0,
          "mode": 4
        }
      ]
    }
  ],
  "nodes": [
    {
      "children": [
        1
      ],
      "name": "RootNode (gltf orientation matrix)",
      "rotation": [
        -0.70710678118654746,
        -0,
        -0,
        0.70710678118654757
      ]
    },
    {
      "children": [
        2
      ],
      "matrix": [
        0.014160994440317154,
        0,
        0,
        0,
        0,
        0.014160994440317154,
        0,
        0,
        0,
        0,
        0.014160994440317154,
        0,
        0,
        0,
        0,
        1
      ],
      "name": "RootNode (model correction matrix)"
    },
    {
      "children": [
        3
      ],
      "matrix": [
        1,
        0,
        0,
        0,
        0,
        0,
        1,
        0,
        0,
        -1,
        0,
        0,
        0,
        0,
        0,
        1
      ],
      "name": "536bc6368185451d8d81e728daa3f85f.fbx"
    },
    {
      "children": [
        4,
        6
      ],
      "name": "RootNode"
    },
    {
      "children": [
        5
      ],
      "name": "chains"
    },
    {
      "mesh": 0,
      "name": "chains_Bag_Balmain_Mat_0"
    },
    {
      "children": [
        7
      ],
      "name": "Bag_Balmain_4"
    },
    {
      "mesh": 1,
      "name": "Bag_Balmain_4_Bag_Balmain_Mat_0"
    }
  ],
  "samplers": [
    {
      "magFilter": 9729,
      "minFilter": 9987,
      "wrapS": 10497,
      "wrapT": 10497
    }
  ],
  "scene": 0,
  "scenes": [
    {
      "name": "OSG_Scene",
      "nodes": [
        0
      ]
    }
  ],
  "textures": [
    {
      "sampler": 0,
      "source": 0
    },
    {
      "sampler": 0,
      "source": 1
    },
    {
      "sampler": 0,
      "source": 2
    }
  ]
}

