<?xml version="1.0" standalone="no"?>
<!DOCTYPE svg PUBLIC "-//W3C//DTD SVG 20010904//EN"
 "http://www.w3.org/TR/2001/REC-SVG-20010904/DTD/svg10.dtd">
<svg version="1.0" xmlns="http://www.w3.org/2000/svg"
 width="512.000000pt" height="512.000000pt" viewBox="0 0 512.000000 512.000000"
 preserveAspectRatio="xMidYMid meet">
<metadata>
Created by potrace 1.14, written by Peter Selinger 2001-2017
</metadata>
<g transform="translate(0.000000,512.000000) scale(0.100000,-0.100000)"
fill="#000000" stroke="none">
<path d="M2680 4350 c-366 -67 -684 -290 -837 -590 -46 -89 -80 -189 -91 -268
-9 -60 -8 -268 0 -307 44 -201 164 -361 374 -501 67 -44 185 -105 319 -164
287 -126 313 -138 397 -192 117 -75 216 -192 234 -278 25 -122 25 -168 -2
-303 -7 -38 -27 -92 -52 -142 -81 -162 -256 -300 -432 -340 -62 -14 -244 -15
-295 -2 -159 41 -275 144 -327 287 -22 60 -27 93 -34 230 -4 63 -7 116 -8 117
-1 1 -42 -7 -91 -18 -50 -11 -97 -22 -106 -24 -9 -2 -33 -6 -54 -9 -20 -4 -40
-8 -44 -10 -3 -3 -26 -7 -50 -11 -24 -3 -55 -11 -70 -16 -14 -6 -27 -10 -28
-10 -2 1 -4 1 -5 0 -8 -2 -75 -11 -87 -12 -29 -1 0 -233 50 -402 54 -180 170
-348 314 -450 89 -64 213 -122 300 -141 156 -35 318 -46 440 -30 28 4 65 8 83
11 63 7 188 40 247 65 228 94 419 239 563 430 35 47 67 92 70 100 3 8 13 26
22 40 44 63 101 223 131 365 7 33 14 67 16 75 2 8 5 65 7 126 3 97 0 140 -20
245 -20 105 -109 269 -197 360 -59 62 -176 152 -252 195 -93 53 -174 92 -284
138 -71 30 -137 59 -147 64 -11 6 -55 25 -99 43 -44 18 -91 40 -105 49 -14 9
-38 22 -54 30 -45 22 -140 119 -164 167 -45 88 -45 173 -1 285 73 187 292 319
527 318 235 0 350 -76 462 -305 8 -16 15 -31 16 -33 0 -1 32 15 71 35 38 21
140 76 226 123 95 52 156 91 156 100 0 18 -58 123 -110 201 -101 149 -262 271
-434 330 -46 15 -39 13 -90 24 -22 4 -49 10 -60 12 -55 14 -305 9 -395 -7z"/>
</g>
</svg>
