{
  "accessors": [
    {
      "bufferView": 2,
      "componentType": 5126,
      "count": 29356,
      "max": [
        1.0246440172195435,
        2.8006880283355713,
        -0.020746000111103058
      ],
      "min": [
        -0.84145498275756836,
        -2.2412760257720947,
        -1.0966019630432129
      ],
      "type": "VEC3"
    },
    {
      "bufferView": 2,
      "byteOffset": 352272,
      "componentType": 5126,
      "count": 29356,
      "max": [
        0.99999797344207764,
        0.99999880790710449,
        1
      ],
      "min": [
        -0.99996387958526611,
        -0.99973982572555542,
        -1
      ],
      "type": "VEC3"
    },
    {
      "bufferView": 3,
      "componentType": 5126,
      "count": 29356,
      "max": [
        0.99999970197677612,
        0.99999958276748657,
        0.99999755620956421,
        1
      ],
      "min": [
        -0.99999964237213135,
        -0.99999958276748657,
        -0.99999594688415527,
        -1
      ],
      "type": "VEC4"
    },
    {
      "bufferView": 1,
      "componentType": 5126,
      "count": 29356,
      "max": [
        0.99431997537612915,
        0.99422997236251831
      ],
      "min": [
        0.0019910000264644623,
        0.00030000001424923539
      ],
      "type": "VEC2"
    },
    {
      "bufferView": 0,
      "componentType": 5125,
      "count": 95040,
      "max": [
        29355
      ],
      "min": [
        0
      ],
      "type": "SCALAR"
    },
    {
      "bufferView": 2,
      "byteOffset": 704544,
      "componentType": 5126,
      "count": 2324,
      "max": [
        1.0772709846496582,
        2.8276650905609131,
        -0.13467200100421906
      ],
      "min": [
        -0.89171898365020752,
        -2.2921369075775146,
        -0.66372597217559814
      ],
      "type": "VEC3"
    },
    {
      "bufferView": 2,
      "byteOffset": 732432,
      "componentType": 5126,
      "count": 2324,
      "max": [
        0.99971300363540649,
        0.99971908330917358,
        0.99901753664016724
      ],
      "min": [
        -0.99964350461959839,
        -0.99999856948852539,
        -0.99992167949676514
      ],
      "type": "VEC3"
    },
    {
      "bufferView": 1,
      "byteOffset": 234848,
      "componentType": 5126,
      "count": 2324,
      "max": [
        0.97867101430892944,
        0.97364002466201782
      ],
      "min": [
        0.76837199926376343,
        0.68452697992324829
      ],
      "type": "VEC2"
    },
    {
      "bufferView": 0,
      "byteOffset": 380160,
      "componentType": 5125,
      "count": 2988,
      "max": [
        2323
      ],
      "min": [
        0
      ],
      "type": "SCALAR"
    },
    {
      "bufferView": 2,
      "byteOffset": 760320,
      "componentType": 5126,
      "count": 11804,
      "max": [
        1.0481640100479126,
        2.7534470558166504,
        2.9684779644012451
      ],
      "min": [
        -0.77685797214508057,
        -1.4263700246810913,
        -0.2576960027217865
      ],
      "type": "VEC3"
    },
    {
      "bufferView": 2,
      "byteOffset": 901968,
      "componentType": 5126,
      "count": 11804,
      "max": [
        0.99995160102844238,
        0.99988150596618652,
        0.99997472763061523
      ],
      "min": [
        -0.99994134902954102,
        -0.99930787086486816,
        -0.99956047534942627
      ],
      "type": "VEC3"
    },
    {
      "bufferView": 1,
      "byteOffset": 253440,
      "componentType": 5126,
      "count": 11804,
      "max": [
        0.98386502265930176,
        0.99592602252960205
      ],
      "min": [
        0.0030350000597536564,
        0.043150998651981354
      ],
      "type": "VEC2"
    },
    {
      "bufferView": 0,
      "byteOffset": 392112,
      "componentType": 5125,
      "count": 65250,
      "max": [
        11803
      ],
      "min": [
        0
      ],
      "type": "SCALAR"
    },
    {
      "bufferView": 2,
      "byteOffset": 1043616,
      "componentType": 5126,
      "count": 65532,
      "max": [
        0.8379250168800354,
        0.81029397249221802,
        3.3097538948059082
      ],
      "min": [
        -0.72553300857543945,
        -2.19399094581604,
        -0.31822401285171509
      ],
      "type": "VEC3"
    },
    {
      "bufferView": 2,
      "byteOffset": 1830000,
      "componentType": 5126,
      "count": 65532,
      "max": [
        0.99999380111694336,
        0.99998068809509277,
        0.99977117776870728
      ],
      "min": [
        -0.99999213218688965,
        -0.99998593330383301,
        -0.99998414516448975
      ],
      "type": "VEC3"
    },
    {
      "bufferView": 3,
      "byteOffset": 469696,
      "componentType": 5126,
      "count": 65532,
      "max": [
        0.99995177984237671,
        0.99999010562896729,
        0.99997884035110474,
        1
      ],
      "min": [
        -0.99999582767486572,
        -0.99997204542160034,
        -0.99999845027923584,
        -1
      ],
      "type": "VEC4"
    },
    {
      "bufferView": 1,
      "byteOffset": 347872,
      "componentType": 5126,
      "count": 65532,
      "max": [
        0.99718302488327026,
        0.99785101413726807
      ],
      "min": [
        0.011497999541461468,
        0.0062199998646974564
      ],
      "type": "VEC2"
    },
    {
      "bufferView": 0,
      "byteOffset": 653112,
      "componentType": 5125,
      "count": 375882,
      "max": [
        65531
      ],
      "min": [
        0
      ],
      "type": "SCALAR"
    },
    {
      "bufferView": 2,
      "byteOffset": 2616384,
      "componentType": 5126,
      "count": 22555,
      "max": [
        1.0118900537490845,
        2.7283089160919189,
        3.2520220279693604
      ],
      "min": [
        -0.80904102325439453,
        -2.2038700580596924,
        -0.48283299803733826
      ],
      "type": "VEC3"
    },
    {
      "bufferView": 2,
      "byteOffset": 2887044,
      "componentType": 5126,
      "count": 22555,
      "max": [
        0.99993348121643066,
        0.99961680173873901,
        0.99998068809509277
      ],
      "min": [
        -0.99997997283935547,
        -0.99995100498199463,
        -0.99988484382629395
      ],
      "type": "VEC3"
    },
    {
      "bufferView": 3,
      "byteOffset": 1518208,
      "componentType": 5126,
      "count": 22555,
      "max": [
        0.99992328882217407,
        0.99998784065246582,
        0.99998128414154053,
        1
      ],
      "min": [
        -0.99999094009399414,
        -0.99986934661865234,
        -0.99989223480224609,
        -1
      ],
      "type": "VEC4"
    },
    {
      "bufferView": 1,
      "byteOffset": 872128,
      "componentType": 5126,
      "count": 22555,
      "max": [
        0.95035797357559204,
        0.99431502819061279
      ],
      "min": [
        0.010750999674201012,
        0.0049100001342594624
      ],
      "type": "VEC2"
    },
    {
      "bufferView": 0,
      "byteOffset": 2156640,
      "componentType": 5125,
      "count": 128241,
      "max": [
        22554
      ],
      "min": [
        0
      ],
      "type": "SCALAR"
    }
  ],
  "asset": {
    "extras": {
      "author": "Mountrise (https://sketchfab.com/Mountrise)",
      "license": "SKETCHFAB Standard (https://sketchfab.com/licenses)",
      "source": "https://sketchfab.com/3d-models/louboutin-boot-68f5463ab25e481fac480c93449298dd",
      "title": "Louboutin Boot"
    },
    "generator": "Sketchfab-7.57.0",
    "version": "2.0"
  },
  "bufferViews": [
    {
      "buffer": 0,
      "byteLength": 2669604,
      "byteOffset": 0,
      "name": "floatBufferViews",
      "target": 34963
    },
    {
      "buffer": 0,
      "byteLength": 1052568,
      "byteOffset": 2669604,
      "byteStride": 8,
      "name": "floatBufferViews",
      "target": 34962
    },
    {
      "buffer": 0,
      "byteLength": 3157704,
      "byteOffset": 3722172,
      "byteStride": 12,
      "name": "floatBufferViews",
      "target": 34962
    },
    {
      "buffer": 0,
      "byteLength": 1879088,
      "byteOffset": 6879876,
      "byteStride": 16,
      "name": "floatBufferViews",
      "target": 34962
    }
  ],
  "buffers": [
    {
      "byteLength": 8758964,
      "uri": "scene.bin"
    }
  ],
  "images": [
    {
      "uri": "textures/Material.001_baseColor.png"
    },
    {
      "uri": "textures/Material.001_metallicRoughness.png"
    },
    {
      "uri": "textures/Material.001_normal.png"
    },
    {
      "uri": "textures/Material.002_metallicRoughness.png"
    },
    {
      "uri": "textures/Material.003_baseColor.png"
    },
    {
      "uri": "textures/Material.003_metallicRoughness.png"
    },
    {
      "uri": "textures/Material.003_normal.png"
    }
  ],
  "materials": [
    {
      "doubleSided": true,
      "name": "Material.001",
      "normalTexture": {
        "index": 2,
        "scale": 1,
        "texCoord": 0
      },
      "pbrMetallicRoughness": {
        "baseColorFactor": [
          1,
          1,
          1,
          1
        ],
        "baseColorTexture": {
          "index": 0,
          "texCoord": 0
        },
        "metallicFactor": 0,
        "metallicRoughnessTexture": {
          "index": 1,
          "texCoord": 0
        },
        "roughnessFactor": 1
      }
    },
    {
      "doubleSided": true,
      "name": "Material.002",
      "occlusionTexture": {
        "index": 3,
        "strength": 1,
        "texCoord": 0
      },
      "pbrMetallicRoughness": {
        "baseColorFactor": [
          0.84513913353014747,
          0.84513913353014747,
          0.84513913353014747,
          1
        ],
        "metallicFactor": 1,
        "metallicRoughnessTexture": {
          "index": 3,
          "texCoord": 0
        },
        "roughnessFactor": 0.072500038146972659
      }
    },
    {
      "doubleSided": true,
      "name": "Material.003",
      "normalTexture": {
        "index": 6,
        "scale": 0.8225000381469727,
        "texCoord": 0
      },
      "occlusionTexture": {
        "index": 5,
        "strength": 1,
        "texCoord": 0
      },
      "pbrMetallicRoughness": {
        "baseColorFactor": [
          1,
          1,
          1,
          1
        ],
        "baseColorTexture": {
          "index": 4,
          "texCoord": 0
        },
        "metallicFactor": 0,
        "metallicRoughnessTexture": {
          "index": 5,
          "texCoord": 0
        },
        "roughnessFactor": 1
      }
    }
  ],
  "meshes": [
    {
      "primitives": [
        {
          "attributes": {
            "NORMAL": 1,
            "POSITION": 0,
            "TANGENT": 2,
            "TEXCOORD_0": 3
          },
          "indices": 4,
          "material": 0,
          "mode": 4
        }
      ]
    },
    {
      "primitives": [
        {
          "attributes": {
            "NORMAL": 6,
            "POSITION": 5,
            "TEXCOORD_0": 7
          },
          "indices": 8,
          "material": 1,
          "mode": 4
        }
      ]
    },
    {
      "primitives": [
        {
          "attributes": {
            "NORMAL": 10,
            "POSITION": 9,
            "TEXCOORD_0": 11
          },
          "indices": 12,
          "material": 1,
          "mode": 4
        }
      ]
    },
    {
      "primitives": [
        {
          "attributes": {
            "NORMAL": 14,
            "POSITION": 13,
            "TANGENT": 15,
            "TEXCOORD_0": 16
          },
          "indices": 17,
          "material": 2,
          "mode": 4
        }
      ]
    },
    {
      "primitives": [
        {
          "attributes": {
            "NORMAL": 19,
            "POSITION": 18,
            "TANGENT": 20,
            "TEXCOORD_0": 21
          },
          "indices": 22,
          "material": 2,
          "mode": 4
        }
      ]
    }
  ],
  "nodes": [
    {
      "children": [
        1
      ],
      "name": "RootNode (gltf orientation matrix)",
      "rotation": [
        -0.70710678118654746,
        -0,
        -0,
        0.70710678118654757
      ]
    },
    {
      "children": [
        2
      ],
      "name": "RootNode (model correction matrix)"
    },
    {
      "children": [
        3,
        4,
        5,
        6,
        7
      ],
      "name": "mawdel.obj.cleaner.materialmerger.gles"
    },
    {
      "mesh": 0,
      "name": ""
    },
    {
      "mesh": 1,
      "name": ""
    },
    {
      "mesh": 2,
      "name": ""
    },
    {
      "mesh": 3,
      "name": ""
    },
    {
      "mesh": 4,
      "name": ""
    }
  ],
  "samplers": [
    {
      "magFilter": 9729,
      "minFilter": 9987,
      "wrapS": 10497,
      "wrapT": 10497
    }
  ],
  "scene": 0,
  "scenes": [
    {
      "name": "OSG_Scene",
      "nodes": [
        0
      ]
    }
  ],
  "textures": [
    {
      "sampler": 0,
      "source": 0
    },
    {
      "sampler": 0,
      "source": 1
    },
    {
      "sampler": 0,
      "source": 2
    },
    {
      "sampler": 0,
      "source": 3
    },
    {
      "sampler": 0,
      "source": 4
    },
    {
      "sampler": 0,
      "source": 5
    },
    {
      "sampler": 0,
      "source": 6
    }
  ]
}

